<svg xmlns="http://www.w3.org/2000/svg" width="103" height="9" viewBox="0 0 103 9">
  <g id="Group_1401" data-name="Group 1401" transform="translate(-975 -6334)">
    <path id="Path_4242" data-name="Path 4242" d="M4.5,0h4a4.5,4.5,0,0,1,0,9h-4a4.5,4.5,0,0,1,0-9Z" transform="translate(1012 6334)" fill="#b7b5b5"/>
    <path id="Path_4245" data-name="Path 4245" d="M4.5,0h14a4.5,4.5,0,0,1,0,9H4.5a4.5,4.5,0,0,1,0-9Z" transform="translate(975 6334)" fill="#fa0"/>
    <path id="Path_4243" data-name="Path 4243" d="M4.5,0h4a4.5,4.5,0,0,1,0,9h-4a4.5,4.5,0,0,1,0-9Z" transform="translate(1038 6334)" fill="#b7b5b5"/>
    <path id="Path_4244" data-name="Path 4244" d="M4.5,0h4a4.5,4.5,0,0,1,0,9h-4a4.5,4.5,0,0,1,0-9Z" transform="translate(1065 6334)" fill="#b7b5b5"/>
  </g>
</svg>
